<svg id="Layer_1" data-name="Layer 1" xmlns="http://www.w3.org/2000/svg" viewBox="0 0 512 512">
  <defs>
    <style>
      .cls-1 {
        fill: #a91f1d;
      }

      .cls-2 {
        fill: #e6651b;
      }

      .cls-3 {
        fill: #fff;
        stroke: #fff;
        stroke-miterlimit: 10;
        stroke-width: 6px;
      }

      .cls-4 {
        fill: #d54d27;
      }

      .cls-5 {
        fill: #1b394c;
      }

      .cls-6 {
        fill: #f2b248;
      }

      .cls-7 {
        fill: #f2981e;
      }
    </style>
  </defs>
  <rect class="cls-6" y="-.48" width="514.48" height="93.53"/>
  <rect class="cls-7" y="93.05" width="514.48" height="83.31"/>
  <rect class="cls-2" y="176.36" width="514.48" height="81.16"/>
  <rect class="cls-4" y="257.32" width="514.48" height="79.93"/>
  <rect class="cls-1" y="337.25" width="514.48" height="86.88"/>
  <rect class="cls-5" y="424.08" width="514.48" height="87.44"/>
  <g>
    <path class="cls-3" d="M357.67,372.87c1.66,4.46,2.41,9.46,1.86,14.02l-.52,4.32c-.81,6.67-3.63,12.98-7.55,18.49-13.11,18.45-36.15,28.56-58.22,32.75-28.45,5.41-57.99,2.28-84.43-9.6-19.78-8.88-35.59-23.9-44.92-43.31l-4.37-11.27c-1.65-4.26-2.48-8.65-2.92-13.22-7.93-2.1-15.61-4.92-21.77-10.62-6.18-5.73-10.32-13.32-12.36-21.74-1.82-7.47-2.9-15.17-3.35-23l-.4-7-.38-6.56-9.09-3.6c-2.55-1.01-5.22-3.13-7.29-5.1-6.56-6.21-10.66-14.78-11.74-23.81-1.72-14.47,2.44-27.8,13.08-37.84,1.58-1.49,3.56-2.59,5.61-3.76-.3-10.38.77-20.27,2.57-30.66,8.6-49.8,38.49-91.83,85.65-111.5,35.94-14.99,75.62-12.63,111.21,2.94,13.48.23,26.19,2.27,39.11,6.08,7.26,2.14,14.13,4.51,20.24,8.96,4.58,3.43,8.9,6.7,12.76,11.13,15.45,17.78,20.88,46.62,7.5,66.85l3.96,39.87.28,5.52c6.36,4.68,13.02,14.11,14.38,21.46l1.79,9.65c.51,2.77.17,5.4-.12,8.23l-.5,4.99c-.7,6.88-2.67,13.62-6.92,19.11l-3.99,5.15c-1.87,2.42-3.36,3.74-2.39,7.28l.24,7.69c.13,4.01.52,7.42.52,11.4l-.03,14.61c-.03,15.71-8.8,29.86-24.98,28.81-9.86-.64-17.95-6.55-22.02-15.63-1.73,0-3.51,1.26-4.35,2.79,3.7,5.41,7.86,10.03,10.09,16.01l3.76,10.09ZM165.04,153.34l11.76-8.86c.27-14.03,4.33-25.44,14.19-35.08,4.04-3.95,8.07-7.59,13.29-9.95,16.48-7.43,36.87-12.15,54.92-14.23,7.45-.97,14.66-.83,22.51-2.48-25.35-7.32-54.4-5.62-78.63,3.76-19.53,7.55-36.24,19.42-50.24,35.05-19.64,21.94-31.04,51.01-34.17,80.31,6.35-8.54,11.96-16.45,19.09-23.63l9.7-9.75,11.14-9.88,6.43-5.25ZM292.85,142.96c3.69-4.28,7.86-8.14,13.67-8.09s10.06,3.76,13.5,7.98l2.67,3.28,17.31,17.15c10.37,10.28,31.84,18.28,40.21,8.43,5.33-6.27,6.53-14.66,6.96-22.72l-.34-6.72c-3.41-23.53-19-38.87-41.63-45.17-12.31-3.43-24.05-5.78-36.86-5.81l-22.88-.06-8.67.48-18.11,1.73c-12.95,1.24-35.38,6.51-47,11.79-5.83,2.65-11.33,5.62-15.22,10.71-6.48,6.21-9.84,14.17-11.08,22.96-1.16,8.25.36,15.67,3.5,23.28s7.77,13.09,15.27,16.13c6.41,2.6,13.23,3.62,20.28,3.38,2.88-.1,5.75.01,8.72-.58,15.9-3.17,30.95-10.18,43.1-20.93l12.72-12.73,3.87-4.49ZM317.03,170.78l21.46,2.38-4.78-4.61-6.44-5.93-6.55-6.52-9.56-10.82c-2.31-2.61-6.22-3.12-8.68-.42l-11.28,12.37c-5.34,5.86-11.12,10.46-17.35,15.87l17.56-1.76,9.19-.66c5.38-.39,10.68-.54,16.42.1ZM146,211.73l9.26-10.59,8.42-8.44,11.69-10.37,10.41-8.4c-1.83-3.02-3.45-5.61-4.43-8.56l-3.94-11.91c-14.14,9.58-26.43,21.6-37.96,33.93-7.62,8.15-16.43,20.37-20.41,31.09l6.79-2.09,8.77-3.16c3.41-1.23,7.61-1.29,11.4-1.49ZM238.81,280.73c1.74,4.88,7.36,8.14,12.42,7.55,5.17-.61,9.34-3.56,13.4-6.42l11.45-8.05c4.68-3.29,10.77-4.08,16.23-5.21.5-1.9,1.75-3.84,3.68-3.34,4.23,1.11.64,6.1,5.26,8.69,7.8,4.37,18.12,3.15,19.61-3.26.59-2.55.06-5.47-1.16-7.66l-5.28-9.42c-2.89-5.16-5.19-11.39-4.12-17.35l2.12-11.88c.3-1.7,2.64-2.65,3.98-2.14,1.21.46,2.33,2.27,2.06,3.7l-1.97,10.6c-.89,4.77,4.02,16.45,7.52,21.63,2.24,3.33,3.72,6.82,3.65,11.03l11.28,3.77c3.09,1.03,5.69,3.75,8.18,5.77l6.94,5.62c1.94,1.58,5.94,2.44,8.05.44,3.21-3.03,3.93-9.29,8.32-8.74,1.57.19,2.98,1.69,3.72,3.34,3.14,7.03,1.49,14.16-1.97,21.2,2.06-1.26,2.25-3.72,3.18-5.68,3.91-8.25,6.65-16.51,7.9-25.58l1.95-14.17-.04-13.5-.57-6.98-.42-4.95-2.17-9.59c-4.68-20.64-17.7-32.1-38.19-36.86-15.11-3.51-30.32-4.89-45.84-4.02-20.86,1.17-42.9,4.8-61.19,14.76-6.52,3.55-12.54,7.28-17.45,12.84l-5.57,6.31c-7.11,9.56-11.46,20.87-12.06,32.76l-.36,7.1-.48,9.16.59,21.06c.14,4.92.78,9.56.32,14.58l.54,7.02.02,16.73-.52,5.41-.19,4.98c8.56,7.41,17.84,12.97,27.89,17.97l10.3,4.36c8.07,3.42,16.44,4.96,25.34,5.86l6.33.64,9.04.02,6.38-.65c6.51-.67,12.83-1.48,18.83-3.83l15.51-6.07c11.16-5.45,20.87-12.31,29.66-21.04l3.98-3.52,4-4.67,7.93-10.4,4.95-8.99c-9.45,13.41-23.78,18.13-39.98,14.8-8.36-1.72-15.57-5.32-21.5-11.96-4.09,3.12-7.22,6.54-11.69,8.7-13.37,6.45-28.46,8.75-43.15,6.07-5.27-.96-10.16-3.24-14.6-5.92-10.54-6.38-16.22-18.21-13.98-30.37.34-1.87,1.81-4.19,2.86-5.79,1.18-1.8,3.95-1.9,5.83-1.14,1.57.63,2.43,2.39,3.26,4.71ZM161.52,356.99c15.03,1.59,28.67-8.34,31.07-23.42l1.43-8.98.23-5.16c.19-4.14.12-7.82.03-11.94l-.23-10.73-.39-5.43-.29-13.44-.1-5.62-.02-18.74.58-8.56c1.61-23.86,12.14-41,32.25-54.8-13.14-.33-25.07-1.88-35.15-10.46l-13.55,11.09-3.47,3.07-18.09,18.03c-.69.69-1.96,2.89-1.33,3.58l6.18,6.73,3.1,3.98c3.49,5.68,5.02,11.93,6.57,18.34,2.37,9.77,2.5,19.33-.3,29l-3.97,10.64c-1.72,4.6-4.85,8.25-8.32,11.69-4.36,4.32-9.75,6.92-15.9,6.94-5.35.02-9.73-.52-14.83-3.74-.63,10.77,1.54,25.61,4.62,35.47,4.29,13.74,15.45,20.91,29.88,22.44ZM381.94,197.92l-1.81-15.65-10.68,2.7,12.49,12.95ZM151.6,291.47c8.82-8.1,11.27-18.65,12.49-30.37.52-5,.07-9.72-1.16-14.61-3.27-12.98-7.61-27.93-22.72-26.88-2.21.15-4.41.21-6.54.99-5.53,2.03-10.74,4.74-16.5,6.07-4.43,1.03-8.29,2.21-11.44,6.07-4.95,6.05-8.69,13.73-9.18,21.8-.42,7.09.87,14.06,4.17,20.2l4.12,6.06c3.06,4.49,8.66,6.01,13.54,7.98,11.3,4.58,23.89,11.23,33.21,2.68ZM395.87,277.65c4.03-5.77,5.97-18.86,4.74-25.23l-1.68-8.69c-.74-3.81-2.57-6.97-5.24-10.4-.56,1.27-1.06,2.67-1.08,3.51l-.19,10.23.08,24.86.9,9.24,2.45-3.52ZM365.89,302.17c4.78-5.73,6.53-13.54,4.3-20.94-2.29,7.61-9.86,13.04-15.23,9.79l-6.09-3.68c-7.49-6.21-11.91-11.49-22.81-13.17-5.07,10.61-20.64,10.96-29.71,3.54l-2.66-3.42c-7.07.55-13.66,3.24-19.56,7.36l-14.66,10.24c-4.86,1.78-9.95,2.55-15.01,1.1-5.85-1.67-9.66-6.46-11.73-12.13-3.02,8.9,0,18.84,7.13,24.84,14.82,12.49,36.54,10.7,54.15,3.39,6.84-2.84,12.1-7.54,16.04-13.72,11.11,18.85,42.93,22.27,55.84,6.81ZM388.08,337.17l1.36-9.35c.46-3.14.1-6.68-.03-9.87l-.52-12.61-.34-12.93c-.08-2.83-.03-5.52-1.19-8.13-4.53,15-10.99,28.81-21.17,40.2l-5.85,6.54-7.38,7.68c2.19,7.79,10.12,14.88,18.45,14.41,4.86-.27,9.3-2.32,12.35-5.59,2.52-2.7,3.78-6.53,4.33-10.35ZM335.85,351.43c-14.07,9.21-29.71,14.39-46.4,15.86l-4.58.4c-6.2.55-12.06.38-18.3-.03l-4.12-.27-10.25-1.63c-18.96-3.02-38.05-12.77-52.97-24.88-2.65,6.6-5.9,12.37-11.3,16.52-6.66,5.12-14.06,8.09-22.7,8.11,1.33,6.56,2.9,12.74,5.82,18.69,3.02,6.12,6.1,11.76,10.6,16.99,14.17,16.43,31.55,25.65,52.72,30.84,27.62,6.76,57.03,4.87,83.07-6.59,8.46-3.72,15.67-8.86,22.08-15.11s10.07-13.2,11.31-21.81c1.68-11.71-6.6-27.98-14.99-37.07Z"/>
    <path class="cls-3" d="M282.72,252.18c-15.3-3.88-28.45-3.22-43.74-.1-1.13.19-2.51-.45-2.95-1.52-4.53-10.9-2.79-22.85,4.85-31.95,8.26-9.84,23.3-11.65,33.31-3.6,11.21,9,14.51,24.02,8.53,37.17Z"/>
    <path class="cls-3" d="M338.37,252.14c-3.71.83-5.07-7.75-5.1-13.13-.05-7.69,2.16-14.56,7.03-20.23,7.49-8.72,20-9.81,28.52-1.31,8.78,8.77,10.7,23.34,5.56,34.88-12.43-2.73-24.13-3.16-36-.21Z"/>
    <path class="cls-3" d="M270.94,150.44c-11.28,9.64-30.63,18.21-45.1,17.53-5.83-.28-11.83-1.39-16.08-5.58-5.66-5.58-7.98-13.25-8.83-21-1.17-10.72,2.35-21.21,12.25-26.13,18.19-9.04,38.24-13.45,58.68-12.82,4.81.15,10.16,2.79,12.67,6.65,3.43,5.26,3.15,11.85,1.61,17.71-2.47,9.38-7.92,17.42-15.21,23.65Z"/>
    <path class="cls-3" d="M378.75,153.11c-.78,6.61-6.24,9.67-12.02,8.5-4.27-.87-8.26-1.77-12.27-3.5-12.23-5.28-21.69-14.11-28.68-25.37-4.12-6.63-7.14-13.74-6.71-21.55.69-12.68,17.49-8.26,28.74-4.84,8.64,2.63,16.29,7.11,22.3,13.97,6.1,9.9,10.05,20.98,8.65,32.8Z"/>
  </g>
</svg>
